#N canvas 600 149 225 215 10;
#X obj 3 -264 tgl 15 0 empty empty empty 17 7 0 10 -262144 -1 -1 0
3;
#X obj 3 -182 cup;
#X msg 3 -117 0;
#X obj 3 -161 t b f;
#X obj 3 -246 t f b;
#X msg 30 -225 1;
#X msg 110 -123 0;
#X obj 30 -117 && 1;
#X obj 71 -144 moses 3;
#X obj 3 -204 metro 400;
#X obj 3 -139 delay 200;
#X obj 3 -286 inlet;
#X obj 30 -95 outlet;
#X text 39 -289 blink 3 times 1 0 1 0 1 0;
#X connect 0 0 4 0;
#X connect 1 0 3 0;
#X connect 2 0 7 0;
#X connect 3 0 10 0;
#X connect 3 1 8 0;
#X connect 3 1 7 0;
#X connect 4 0 9 0;
#X connect 4 1 5 0;
#X connect 5 0 1 0;
#X connect 6 0 0 0;
#X connect 7 0 12 0;
#X connect 8 1 6 0;
#X connect 9 0 1 0;
#X connect 10 0 2 0;
#X connect 11 0 0 0;
