#N canvas 69 23 1268 834 10;
#X declare -lib mrpeach;
#X obj 516 86 *~;
#X floatatom 602 46 10 0 0 0 - - -;
#X obj 539 96 *~;
#X obj 539 176 *~;
#X obj 516 166 *~;
#X msg 176 -16 stop;
#X obj 176 -86 bng 15 250 50 0 empty empty empty 17 7 0 10 -262144
-1 -1;
#X obj 176 -66 loadbang;
#X obj 46 -54 smoother;
#X obj 562 106 *~;
#X obj 585 116 *~;
#X obj 585 196 *~;
#X obj 562 186 *~;
#X obj 622 79 select 0 1 2 3;
#X obj 622 149 ss;
#X obj 642 159 ss;
#X obj 662 169 ss;
#X obj 682 179 ss;
#X obj -74 -74 netreceive 3010;
#X obj 46 -74 netreceive 3011;
#X obj 722 79 select 0 1 2 3;
#X obj 516 226 dac~ 1 2 3 4;
#X obj 46 56 smoother;
#X obj -74 36 netreceive 3020;
#X obj 46 36 netreceive 3021;
#X text -76 -90 Antenna for tag 1;
#X text 44 -90 RSSI for tag 1;
#X obj -74 -54 s ant_1;
#X obj 46 -14 s rssi_1;
#X text -76 20 Antenna for tag 2;
#X text 44 20 RSSI for tag 2;
#X obj 46 96 s rssi_2;
#X obj -74 56 s ant_2;
#X obj 602 -84 r rssi_1;
#X obj 516 46 r~ snd_1;
#X obj 722 49 r ant_1;
#X obj 46 166 smoother;
#X text -76 130 Antenna for tag 3;
#X text 44 130 RSSI for tag 3;
#X obj 46 146 netreceive 3031;
#X obj -74 146 netreceive 3030;
#X obj -74 166 s ant_3;
#X obj 46 206 s rssi_3;
#X obj 46 276 smoother;
#X text -76 240 Antenna for tag 4;
#X text 44 240 RSSI for tag 4;
#X obj 46 256 netreceive 3041;
#X obj -74 256 netreceive 3040;
#X obj -74 276 s ant_4;
#X obj 46 316 s rssi_4;
#X msg 303 -45 start;
#X obj 243 -25 readsf~ 1;
#X obj 303 -85 delay 10;
#X obj 243 -5 s~ snd_1;
#X obj 176 -46 s start;
#X obj 243 -85 r start;
#X obj 176 4 s stop;
#X obj 253 -45 r stop;
#X msg 303 65 start;
#X obj 243 85 readsf~ 1;
#X obj 303 25 delay 10;
#X obj 243 25 r start;
#X obj 253 65 r stop;
#X obj 243 105 s~ snd_2;
#X msg 303 175 start;
#X obj 243 195 readsf~ 1;
#X obj 303 135 delay 10;
#X obj 243 135 r start;
#X obj 253 175 r stop;
#X obj 243 215 s~ snd_3;
#X msg 303 285 start;
#X obj 243 305 readsf~ 1;
#X obj 303 245 delay 10;
#X obj 243 245 r start;
#X obj 253 285 r stop;
#X obj 243 325 s~ snd_4;
#X obj 836 86 *~;
#X floatatom 922 46 10 0 0 0 - - -;
#X obj 922 -24 - 0.25;
#X obj 859 96 *~;
#X obj 859 176 *~;
#X obj 836 166 *~;
#X obj 922 -44 / 40000;
#X obj 882 106 *~;
#X obj 905 116 *~;
#X obj 905 196 *~;
#X obj 882 186 *~;
#X obj 942 79 select 0 1 2 3;
#X obj 942 149 ss;
#X obj 962 159 ss;
#X obj 982 169 ss;
#X obj 1002 179 ss;
#X msg 942 99 1;
#X msg 962 109 1;
#X msg 982 119 1;
#X msg 1002 129 1;
#X obj 1042 79 select 0 1 2 3;
#X msg 1042 132 0;
#X msg 1062 142 0;
#X msg 1082 152 0;
#X msg 1102 162 0;
#X obj 836 226 dac~ 1 2 3 4;
#X obj 836 46 r~ snd_2;
#X obj 922 -74 r rssi_2;
#X obj 1042 49 r ant_2;
#X obj 466 716 *~;
#X floatatom 552 676 10 0 0 0 - - -;
#X obj 552 646 - 0.25;
#X obj 489 726 *~;
#X obj 489 806 *~;
#X obj 466 796 *~;
#X obj 552 626 / 40000;
#X obj 512 736 *~;
#X obj 535 746 *~;
#X obj 535 826 *~;
#X obj 512 816 *~;
#X obj 572 709 select 0 1 2 3;
#X obj 572 779 ss;
#X obj 592 789 ss;
#X obj 612 799 ss;
#X obj 632 809 ss;
#X msg 572 729 1;
#X msg 592 739 1;
#X msg 612 749 1;
#X msg 632 759 1;
#X obj 672 709 select 0 1 2 3;
#X msg 672 762 0;
#X msg 692 772 0;
#X msg 712 782 0;
#X obj 466 856 dac~ 1 2 3 4;
#X obj 466 676 r~ snd_3;
#X obj 552 596 r rssi_3;
#X obj 786 716 *~;
#X floatatom 872 676 10 0 0 0 - - -;
#X obj 872 646 - 0.25;
#X obj 809 726 *~;
#X obj 809 806 *~;
#X obj 786 796 *~;
#X obj 872 626 / 40000;
#X obj 832 736 *~;
#X obj 855 746 *~;
#X obj 855 826 *~;
#X obj 832 816 *~;
#X obj 892 709 select 0 1 2 3;
#X obj 892 779 ss;
#X obj 912 789 ss;
#X obj 932 799 ss;
#X obj 952 809 ss;
#X msg 892 729 1;
#X msg 912 739 1;
#X msg 932 749 1;
#X msg 952 759 1;
#X obj 992 709 select 0 1 2 3;
#X msg 992 762 0;
#X msg 1012 772 0;
#X msg 1032 782 0;
#X obj 786 856 dac~ 1 2 3 4;
#X obj 786 676 r~ snd_4;
#X obj 872 596 r rssi_4;
#X obj 992 596 r ant_4;
#X msg 622 99 0;
#X msg 642 109 0;
#X msg 662 119 0;
#X msg 682 129 0;
#X msg 722 132 1;
#X msg 742 142 1;
#X msg 762 152 1;
#X msg 782 162 1;
#X obj 10 666 unpack f f f;
#X floatatom 10 686 5 0 0 0 - - -;
#X floatatom 44 686 5 0 0 0 - - -;
#X floatatom 79 686 5 0 0 0 - - -;
#X msg -74 436 /grid/led/level/set \$1 \$2 \$3;
#X obj -74 466 serialosc_pd;
#X obj -74 416 pack f f f;
#X msg 243 45 open ../sounds/piano_chords.wav;
#X msg 243 -65 open ../sounds/rain.wav;
#X msg 243 155 open ../sounds/bass.wav;
#X msg 243 265 open ../sounds/choir.wav;
#X obj 602 -4 + -1;
#X obj 602 -54 / 40000;
#X obj 602 -34 - 0.25;
#X msg 732 792 0;
#X msg 1052 792 0;
#X obj 602 16 * 0.1;
#X obj 10 706 s col;
#X obj 44 706 s row;
#X obj -74 385 r led_c;
#X obj -24 385 r led_r;
#X obj 36 385 r led_b;
#X obj 79 706 s press;
#X obj 74 815 r col;
#X obj 91 905 r row;
#X obj 41 935 spigot;
#X floatatom 41 985 5 0 0 0 - - -;
#X obj 91 955 r press;
#X obj 41 955 spigot;
#X obj -74 1055 s led_c;
#X obj -24 1055 s led_r;
#X obj 26 1055 s led_b;
#X obj -24 985 line 0 10;
#X msg -54 965 0 0;
#X obj -24 1005 int;
#X obj 26 1005 <=;
#X obj -24 945 delay 10;
#X obj 41 915 spigot;
#X obj 74 865 int;
#X obj 74 885 == 0;
#X obj 41 895 f;
#X obj 314 815 r col;
#X obj 331 905 r row;
#X obj 281 935 spigot;
#X floatatom 281 985 5 0 0 0 - - -;
#X obj 331 955 r press;
#X obj 281 955 spigot;
#X obj 166 1055 s led_c;
#X obj 216 1055 s led_r;
#X obj 266 1055 s led_b;
#X obj 216 985 line 0 10;
#X obj 216 1005 int;
#X obj 266 1005 <=;
#X obj 216 945 delay 10;
#X obj 281 915 spigot;
#X obj 314 845 / 8;
#X obj 314 865 int;
#X obj 281 845 % 8;
#X obj 314 885 == 1;
#X obj 26 1025 * 10;
#X obj 266 1025 * 10;
#X msg 186 965 0 0;
#X msg 216 965 7 80;
#X obj 166 1035 + 8;
#X obj 607 275 * 16;
#X obj 507 295 s led_c;
#X obj 557 295 s led_r;
#X obj 607 295 s led_b;
#X obj 627 355 * 16;
#X obj 527 375 s led_c;
#X obj 577 375 s led_r;
#X obj 627 375 s led_b;
#X obj 647 435 * 16;
#X obj 547 455 s led_c;
#X obj 597 455 s led_r;
#X obj 647 455 s led_b;
#X obj 667 515 * 16;
#X obj 567 535 s led_c;
#X obj 617 535 s led_r;
#X obj 667 535 s led_b;
#X obj 407 465 s ledclk;
#X obj 407 365 loadbang;
#X obj 477 255 r ledclk;
#X obj 537 255 delay 0;
#X obj 497 335 r ledclk;
#X obj 537 495 r ledclk;
#X obj 517 415 r ledclk;
#X obj 927 275 * 16;
#X obj 827 295 s led_c;
#X obj 877 295 s led_r;
#X obj 927 295 s led_b;
#X msg 877 275 7;
#X obj 927 255 f;
#X obj 947 355 * 16;
#X obj 847 375 s led_c;
#X obj 897 375 s led_r;
#X obj 947 375 s led_b;
#X msg 897 355 7;
#X obj 947 335 f;
#X obj 967 435 * 16;
#X obj 867 455 s led_c;
#X obj 917 455 s led_r;
#X obj 967 455 s led_b;
#X msg 917 435 7;
#X obj 967 415 f;
#X obj 987 515 * 16;
#X obj 887 535 s led_c;
#X obj 937 535 s led_r;
#X obj 987 535 s led_b;
#X msg 937 515 7;
#X obj 987 495 f;
#X obj 797 255 r ledclk;
#X obj 817 335 r ledclk;
#X obj 857 495 r ledclk;
#X obj 837 415 r ledclk;
#X obj 557 905 * 16;
#X obj 457 925 s led_c;
#X obj 507 925 s led_r;
#X obj 557 925 s led_b;
#X obj 577 985 * 16;
#X obj 477 1005 s led_c;
#X obj 527 1005 s led_r;
#X obj 577 1005 s led_b;
#X obj 597 1065 * 16;
#X obj 497 1085 s led_c;
#X obj 547 1085 s led_r;
#X obj 597 1085 s led_b;
#X obj 617 1145 * 16;
#X obj 517 1165 s led_c;
#X obj 567 1165 s led_r;
#X obj 617 1165 s led_b;
#X obj 427 885 r ledclk;
#X obj 447 965 r ledclk;
#X obj 487 1125 r ledclk;
#X obj 467 1045 r ledclk;
#X obj 877 905 * 16;
#X obj 777 925 s led_c;
#X obj 827 925 s led_r;
#X obj 877 925 s led_b;
#X msg 827 905 7;
#X obj 877 885 f;
#X obj 897 985 * 16;
#X obj 797 1005 s led_c;
#X obj 847 1005 s led_r;
#X obj 897 1005 s led_b;
#X msg 847 985 7;
#X obj 897 965 f;
#X obj 917 1065 * 16;
#X obj 817 1085 s led_c;
#X obj 867 1085 s led_r;
#X obj 917 1085 s led_b;
#X msg 867 1065 7;
#X obj 917 1045 f;
#X obj 937 1145 * 16;
#X obj 837 1165 s led_c;
#X obj 887 1165 s led_r;
#X obj 937 1165 s led_b;
#X msg 887 1145 7;
#X obj 937 1125 f;
#X obj 747 885 r ledclk;
#X obj 767 965 r ledclk;
#X obj 807 1125 r ledclk;
#X obj 787 1045 r ledclk;
#X obj 607 255 f;
#X obj 627 335 f;
#X obj 647 415 f;
#X obj 667 495 f;
#X obj 557 885 f;
#X obj 577 965 f;
#X obj 597 1045 f;
#X obj 617 1125 f;
#X msg 827 275 7;
#X msg 847 355 6;
#X msg 507 275 3;
#X msg 527 355 2;
#X msg 557 275 6;
#X msg 577 355 6;
#X msg 597 435 6;
#X msg 617 515 6;
#X msg 507 905 6;
#X msg 527 985 6;
#X msg 547 1065 6;
#X msg 567 1145 6;
#X msg 457 905 11;
#X msg 477 985 10;
#X msg 777 905 15;
#X msg 797 985 14;
#X obj 81 985 s slide0;
#X obj 321 985 s slide1;
#X msg 216 1035 0;
#X msg -24 1035 0;
#X obj 557 335 delay 10;
#X obj 577 415 delay 20;
#X obj 597 495 delay 30;
#X obj 857 255 delay 50;
#X obj 877 335 delay 60;
#X obj 897 415 delay 70;
#X obj 917 495 delay 80;
#X obj 487 885 delay 100;
#X obj 507 965 delay 110;
#X obj 527 1045 delay 120;
#X obj 547 1125 delay 130;
#X obj 807 885 delay 150;
#X obj 827 965 delay 160;
#X obj 847 1045 delay 170;
#X obj 867 1125 delay 180;
#X obj 407 445 metro 400;
#X obj -24 895 r ledclk;
#X obj -24 915 delay 300;
#X obj 91 935 == 0;
#X obj 216 895 r ledclk;
#X obj 216 915 delay 300;
#X obj 331 935 == 0;
#X obj 672 586 r ant_3;
#X obj 992 686 % 4;
#X obj 992 666 +;
#X obj 1052 606 metro;
#X obj 1079 506 - 7;
#X obj 1079 546 pow 2;
#X floatatom 1079 586 5 0 0 0 - - -;
#X obj 1079 526 * -10;
#X obj 1079 566 + 900;
#X obj 1052 586 tgl 15 0 empty empty empty 17 7 0 10 -262144 -1 -1
0 1;
#X obj 1052 636 + 1;
#X obj 1079 486 r slide1;
#X obj 1022 636 f;
#X msg 1022 666 0;
#X obj 672 686 % 4;
#X obj 687 626 r slide0;
#X msg 867 435 5;
#X msg 887 515 4;
#X msg 547 435 1;
#X msg 567 515 0;
#X msg 497 1065 9;
#X msg 517 1145 8;
#X msg 817 1065 13;
#X msg 837 1145 12;
#X obj 672 666 +;
#X obj 672 606 + 4;
#X obj 687 646 * -1;
#X obj 41 845 % 4;
#X obj 74 845 / 4;
#X msg -24 965 3 80;
#X obj 41 875 bang;
#X obj 407 385 delay 2000;
#X obj 216 545 s led_c;
#X obj 266 545 s led_r;
#X obj 316 545 s led_b;
#X msg 266 526 5;
#X obj 266 425 line 0 10;
#X msg 236 405 0 0;
#X obj 407 425 tgl 15 0 empty empty empty 17 7 0 10 -262144 -1 -1 1
1;
#X obj 316 455 % 8;
#X obj 216 525 int;
#X msg 266 405 15 2000;
#X obj 316 475 <= 3;
#X obj 316 505 * 6;
#X obj 316 525 + 2;
#X connect 0 0 4 0;
#X connect 1 0 0 1;
#X connect 1 0 2 1;
#X connect 1 0 9 1;
#X connect 1 0 10 1;
#X connect 2 0 3 0;
#X connect 3 0 21 1;
#X connect 4 0 21 0;
#X connect 5 0 56 0;
#X connect 6 0 7 0;
#X connect 7 0 54 0;
#X connect 8 0 28 0;
#X connect 9 0 12 0;
#X connect 10 0 11 0;
#X connect 11 0 21 3;
#X connect 12 0 21 2;
#X connect 13 0 160 0;
#X connect 13 1 161 0;
#X connect 13 2 162 0;
#X connect 13 3 163 0;
#X connect 14 0 4 1;
#X connect 14 0 331 1;
#X connect 15 0 3 1;
#X connect 15 0 332 1;
#X connect 16 0 12 1;
#X connect 16 0 333 1;
#X connect 17 0 11 1;
#X connect 17 0 334 1;
#X connect 18 0 27 0;
#X connect 19 0 8 0;
#X connect 20 0 165 0;
#X connect 20 0 166 0;
#X connect 20 0 167 0;
#X connect 20 1 164 0;
#X connect 20 1 166 0;
#X connect 20 1 167 0;
#X connect 20 2 164 0;
#X connect 20 2 165 0;
#X connect 20 2 167 0;
#X connect 20 3 164 0;
#X connect 20 3 165 0;
#X connect 20 3 166 0;
#X connect 22 0 31 0;
#X connect 23 0 32 0;
#X connect 24 0 22 0;
#X connect 33 0 180 0;
#X connect 34 0 0 0;
#X connect 34 0 2 0;
#X connect 34 0 9 0;
#X connect 34 0 10 0;
#X connect 35 0 13 0;
#X connect 35 0 20 0;
#X connect 36 0 42 0;
#X connect 39 0 36 0;
#X connect 40 0 41 0;
#X connect 43 0 49 0;
#X connect 46 0 43 0;
#X connect 47 0 48 0;
#X connect 50 0 51 0;
#X connect 51 0 53 0;
#X connect 51 1 52 0;
#X connect 51 1 176 0;
#X connect 52 0 50 0;
#X connect 55 0 176 0;
#X connect 55 0 52 0;
#X connect 57 0 51 0;
#X connect 58 0 59 0;
#X connect 59 0 63 0;
#X connect 59 1 60 0;
#X connect 59 1 175 0;
#X connect 60 0 58 0;
#X connect 61 0 175 0;
#X connect 61 0 60 0;
#X connect 62 0 59 0;
#X connect 64 0 65 0;
#X connect 65 0 69 0;
#X connect 65 1 66 0;
#X connect 65 1 177 0;
#X connect 66 0 64 0;
#X connect 67 0 177 0;
#X connect 67 0 66 0;
#X connect 68 0 65 0;
#X connect 70 0 71 0;
#X connect 71 0 75 0;
#X connect 71 1 72 0;
#X connect 71 1 178 0;
#X connect 72 0 70 0;
#X connect 73 0 178 0;
#X connect 73 0 72 0;
#X connect 74 0 71 0;
#X connect 76 0 81 0;
#X connect 77 0 76 1;
#X connect 77 0 79 1;
#X connect 77 0 83 1;
#X connect 77 0 84 1;
#X connect 78 0 77 0;
#X connect 79 0 80 0;
#X connect 80 0 101 1;
#X connect 81 0 101 0;
#X connect 82 0 78 0;
#X connect 83 0 86 0;
#X connect 84 0 85 0;
#X connect 85 0 101 3;
#X connect 86 0 101 2;
#X connect 87 0 92 0;
#X connect 87 1 93 0;
#X connect 87 2 94 0;
#X connect 87 3 95 0;
#X connect 88 0 81 1;
#X connect 88 0 260 1;
#X connect 89 0 80 1;
#X connect 89 0 266 1;
#X connect 90 0 86 1;
#X connect 90 0 272 1;
#X connect 91 0 85 1;
#X connect 91 0 278 1;
#X connect 92 0 88 0;
#X connect 93 0 89 0;
#X connect 94 0 90 0;
#X connect 95 0 91 0;
#X connect 96 0 98 0;
#X connect 96 0 99 0;
#X connect 96 0 100 0;
#X connect 96 1 97 0;
#X connect 96 1 99 0;
#X connect 96 1 100 0;
#X connect 96 2 97 0;
#X connect 96 2 98 0;
#X connect 96 2 100 0;
#X connect 96 3 97 0;
#X connect 96 3 98 0;
#X connect 96 3 99 0;
#X connect 97 0 88 0;
#X connect 98 0 89 0;
#X connect 99 0 90 0;
#X connect 100 0 91 0;
#X connect 102 0 76 0;
#X connect 102 0 79 0;
#X connect 102 0 83 0;
#X connect 102 0 84 0;
#X connect 103 0 82 0;
#X connect 104 0 87 0;
#X connect 104 0 96 0;
#X connect 105 0 110 0;
#X connect 106 0 105 1;
#X connect 106 0 108 1;
#X connect 106 0 112 1;
#X connect 106 0 113 1;
#X connect 107 0 106 0;
#X connect 108 0 109 0;
#X connect 109 0 129 1;
#X connect 110 0 129 0;
#X connect 111 0 107 0;
#X connect 112 0 115 0;
#X connect 113 0 114 0;
#X connect 114 0 129 3;
#X connect 115 0 129 2;
#X connect 116 0 121 0;
#X connect 116 1 122 0;
#X connect 116 2 123 0;
#X connect 116 3 124 0;
#X connect 117 0 110 1;
#X connect 117 0 335 1;
#X connect 118 0 109 1;
#X connect 118 0 336 1;
#X connect 119 0 115 1;
#X connect 119 0 337 1;
#X connect 120 0 114 1;
#X connect 120 0 338 1;
#X connect 121 0 117 0;
#X connect 122 0 118 0;
#X connect 123 0 119 0;
#X connect 124 0 120 0;
#X connect 125 0 127 0;
#X connect 125 0 128 0;
#X connect 125 0 182 0;
#X connect 125 1 126 0;
#X connect 125 1 128 0;
#X connect 125 1 182 0;
#X connect 125 2 126 0;
#X connect 125 2 127 0;
#X connect 125 2 182 0;
#X connect 125 3 126 0;
#X connect 125 3 127 0;
#X connect 125 3 128 0;
#X connect 126 0 117 0;
#X connect 127 0 118 0;
#X connect 128 0 119 0;
#X connect 130 0 105 0;
#X connect 130 0 108 0;
#X connect 130 0 112 0;
#X connect 130 0 113 0;
#X connect 131 0 111 0;
#X connect 132 0 137 0;
#X connect 133 0 132 1;
#X connect 133 0 135 1;
#X connect 133 0 139 1;
#X connect 133 0 140 1;
#X connect 134 0 133 0;
#X connect 135 0 136 0;
#X connect 136 0 156 1;
#X connect 137 0 156 0;
#X connect 138 0 134 0;
#X connect 139 0 142 0;
#X connect 140 0 141 0;
#X connect 141 0 156 3;
#X connect 142 0 156 2;
#X connect 143 0 148 0;
#X connect 143 1 149 0;
#X connect 143 2 150 0;
#X connect 143 3 151 0;
#X connect 144 0 137 1;
#X connect 144 0 308 1;
#X connect 145 0 136 1;
#X connect 145 0 314 1;
#X connect 146 0 142 1;
#X connect 146 0 320 1;
#X connect 147 0 141 1;
#X connect 147 0 326 1;
#X connect 148 0 144 0;
#X connect 149 0 145 0;
#X connect 150 0 146 0;
#X connect 151 0 147 0;
#X connect 152 0 154 0;
#X connect 152 0 155 0;
#X connect 152 0 183 0;
#X connect 152 1 153 0;
#X connect 152 1 155 0;
#X connect 152 1 183 0;
#X connect 152 2 153 0;
#X connect 152 2 154 0;
#X connect 152 2 183 0;
#X connect 152 3 153 0;
#X connect 152 3 154 0;
#X connect 152 3 155 0;
#X connect 153 0 144 0;
#X connect 154 0 145 0;
#X connect 155 0 146 0;
#X connect 157 0 132 0;
#X connect 157 0 135 0;
#X connect 157 0 139 0;
#X connect 157 0 140 0;
#X connect 158 0 138 0;
#X connect 159 0 383 0;
#X connect 160 0 14 0;
#X connect 161 0 15 0;
#X connect 162 0 16 0;
#X connect 163 0 17 0;
#X connect 164 0 14 0;
#X connect 165 0 15 0;
#X connect 166 0 16 0;
#X connect 167 0 17 0;
#X connect 168 0 169 0;
#X connect 168 1 170 0;
#X connect 168 2 171 0;
#X connect 169 0 185 0;
#X connect 170 0 186 0;
#X connect 171 0 190 0;
#X connect 172 0 173 0;
#X connect 173 1 168 0;
#X connect 174 0 172 0;
#X connect 175 0 59 0;
#X connect 176 0 51 0;
#X connect 177 0 65 0;
#X connect 178 0 71 0;
#X connect 179 0 184 0;
#X connect 180 0 181 0;
#X connect 181 0 179 0;
#X connect 182 0 120 0;
#X connect 183 0 147 0;
#X connect 184 0 1 0;
#X connect 187 0 174 0;
#X connect 188 0 174 1;
#X connect 189 0 174 2;
#X connect 191 0 408 0;
#X connect 191 0 409 0;
#X connect 192 0 377 0;
#X connect 193 0 196 0;
#X connect 194 0 203 1;
#X connect 195 0 196 1;
#X connect 196 0 194 0;
#X connect 196 0 355 0;
#X connect 200 0 202 0;
#X connect 201 0 200 0;
#X connect 202 0 203 0;
#X connect 202 0 197 0;
#X connect 202 0 358 0;
#X connect 203 0 227 0;
#X connect 204 0 410 0;
#X connect 205 0 193 0;
#X connect 206 0 207 0;
#X connect 207 0 205 1;
#X connect 207 0 411 0;
#X connect 208 0 205 0;
#X connect 209 0 223 0;
#X connect 209 0 225 0;
#X connect 210 0 380 0;
#X connect 211 0 214 0;
#X connect 212 0 220 1;
#X connect 213 0 214 1;
#X connect 214 0 212 0;
#X connect 214 0 356 0;
#X connect 218 0 219 0;
#X connect 219 0 220 0;
#X connect 219 0 357 0;
#X connect 219 0 231 0;
#X connect 220 0 228 0;
#X connect 221 0 230 0;
#X connect 222 0 211 0;
#X connect 223 0 224 0;
#X connect 224 0 226 0;
#X connect 225 0 222 0;
#X connect 226 0 222 1;
#X connect 227 0 199 0;
#X connect 228 0 217 0;
#X connect 229 0 218 0;
#X connect 230 0 218 0;
#X connect 231 0 215 0;
#X connect 232 0 235 0;
#X connect 232 0 343 0;
#X connect 232 0 341 0;
#X connect 236 0 239 0;
#X connect 236 0 344 0;
#X connect 236 0 342 0;
#X connect 240 0 243 0;
#X connect 240 0 345 0;
#X connect 240 0 399 0;
#X connect 244 0 247 0;
#X connect 244 0 346 0;
#X connect 244 0 400 0;
#X connect 249 0 412 0;
#X connect 249 0 422 0;
#X connect 250 0 251 0;
#X connect 251 0 331 0;
#X connect 252 0 359 0;
#X connect 253 0 361 0;
#X connect 254 0 360 0;
#X connect 255 0 258 0;
#X connect 255 0 259 0;
#X connect 255 0 339 0;
#X connect 259 0 257 0;
#X connect 260 0 255 0;
#X connect 261 0 264 0;
#X connect 261 0 265 0;
#X connect 261 0 340 0;
#X connect 265 0 263 0;
#X connect 266 0 261 0;
#X connect 267 0 270 0;
#X connect 267 0 271 0;
#X connect 267 0 397 0;
#X connect 271 0 269 0;
#X connect 272 0 267 0;
#X connect 273 0 276 0;
#X connect 273 0 277 0;
#X connect 273 0 398 0;
#X connect 277 0 275 0;
#X connect 278 0 273 0;
#X connect 279 0 362 0;
#X connect 280 0 363 0;
#X connect 281 0 365 0;
#X connect 282 0 364 0;
#X connect 283 0 286 0;
#X connect 283 0 347 0;
#X connect 283 0 351 0;
#X connect 287 0 290 0;
#X connect 287 0 348 0;
#X connect 287 0 352 0;
#X connect 291 0 294 0;
#X connect 291 0 349 0;
#X connect 291 0 401 0;
#X connect 295 0 298 0;
#X connect 295 0 350 0;
#X connect 295 0 402 0;
#X connect 299 0 366 0;
#X connect 300 0 367 0;
#X connect 301 0 369 0;
#X connect 302 0 368 0;
#X connect 303 0 306 0;
#X connect 303 0 307 0;
#X connect 303 0 353 0;
#X connect 307 0 305 0;
#X connect 308 0 303 0;
#X connect 309 0 312 0;
#X connect 309 0 313 0;
#X connect 309 0 354 0;
#X connect 313 0 311 0;
#X connect 314 0 309 0;
#X connect 315 0 318 0;
#X connect 315 0 319 0;
#X connect 315 0 403 0;
#X connect 319 0 317 0;
#X connect 320 0 315 0;
#X connect 321 0 324 0;
#X connect 321 0 325 0;
#X connect 321 0 404 0;
#X connect 325 0 323 0;
#X connect 326 0 321 0;
#X connect 327 0 370 0;
#X connect 328 0 371 0;
#X connect 329 0 373 0;
#X connect 330 0 372 0;
#X connect 331 0 232 0;
#X connect 332 0 236 0;
#X connect 333 0 240 0;
#X connect 334 0 244 0;
#X connect 335 0 283 0;
#X connect 336 0 287 0;
#X connect 337 0 291 0;
#X connect 338 0 295 0;
#X connect 339 0 256 0;
#X connect 340 0 262 0;
#X connect 341 0 233 0;
#X connect 342 0 237 0;
#X connect 343 0 234 0;
#X connect 344 0 238 0;
#X connect 345 0 242 0;
#X connect 346 0 246 0;
#X connect 347 0 285 0;
#X connect 348 0 289 0;
#X connect 349 0 293 0;
#X connect 350 0 297 0;
#X connect 351 0 284 0;
#X connect 352 0 288 0;
#X connect 353 0 304 0;
#X connect 354 0 310 0;
#X connect 357 0 216 0;
#X connect 358 0 198 0;
#X connect 359 0 332 0;
#X connect 360 0 333 0;
#X connect 361 0 334 0;
#X connect 362 0 260 0;
#X connect 363 0 266 0;
#X connect 364 0 272 0;
#X connect 365 0 278 0;
#X connect 366 0 335 0;
#X connect 367 0 336 0;
#X connect 368 0 337 0;
#X connect 369 0 338 0;
#X connect 370 0 308 0;
#X connect 371 0 314 0;
#X connect 372 0 320 0;
#X connect 373 0 326 0;
#X connect 374 0 248 0;
#X connect 375 0 376 0;
#X connect 376 0 204 0;
#X connect 376 0 201 0;
#X connect 377 0 193 1;
#X connect 378 0 379 0;
#X connect 379 0 221 0;
#X connect 379 0 229 0;
#X connect 380 0 211 1;
#X connect 381 0 406 0;
#X connect 382 0 152 0;
#X connect 382 0 143 0;
#X connect 383 0 382 0;
#X connect 384 0 393 0;
#X connect 385 0 388 0;
#X connect 386 0 389 0;
#X connect 387 0 384 1;
#X connect 388 0 386 0;
#X connect 389 0 387 0;
#X connect 390 0 384 0;
#X connect 391 0 393 1;
#X connect 392 0 385 0;
#X connect 393 0 383 1;
#X connect 393 0 391 0;
#X connect 394 0 383 1;
#X connect 395 0 125 0;
#X connect 395 0 116 0;
#X connect 396 0 407 0;
#X connect 397 0 268 0;
#X connect 398 0 274 0;
#X connect 399 0 241 0;
#X connect 400 0 245 0;
#X connect 401 0 292 0;
#X connect 402 0 296 0;
#X connect 403 0 316 0;
#X connect 404 0 322 0;
#X connect 405 0 395 0;
#X connect 406 0 405 0;
#X connect 407 0 405 1;
#X connect 408 0 208 1;
#X connect 409 0 206 0;
#X connect 410 0 200 0;
#X connect 411 0 208 0;
#X connect 412 0 419 0;
#X connect 416 0 414 0;
#X connect 417 0 416 0;
#X connect 417 0 420 0;
#X connect 417 0 421 0;
#X connect 418 0 417 0;
#X connect 419 0 374 0;
#X connect 420 0 423 0;
#X connect 421 0 413 0;
#X connect 422 0 417 0;
#X connect 423 0 424 0;
#X connect 424 0 425 0;
#X connect 425 0 415 0;
