#N canvas 455 95 670 525 10;
#X obj 476 226 *~;
#X obj 476 376 dac~;
#X obj 156 -74 netreceive 3001;
#X obj 366 -74 netreceive 3002;
#X obj -54 -74 netreceive 3000;
#X text -56 -90 Antenna;
#X text 154 -90 Tag ID;
#X text 364 -90 RSSI;
#X obj 512 86 r rssi;
#X obj 366 86 s rssi;
#X floatatom 512 156 10 0 0 0 - - -;
#X obj 366 66 smooth;
#X obj 399 26 loadbang;
#X obj 376 -14 metro 100;
#X obj 376 -34 tgl 15 0 empty empty empty 17 7 0 10 -262144 -1 -1 1
1;
#X floatatom 366 6 10 0 0 0 - - -;
#X obj 512 136 - 0.25;
#X obj 497 246 *~;
#X obj 497 346 *~;
#X obj 476 326 *~;
#X obj -54 66 smooth;
#X obj -21 26 loadbang;
#X floatatom -54 86 10 0 0 0 - - -;
#X obj -44 -14 metro 100;
#X obj -44 -34 tgl 15 0 empty empty empty 17 7 0 10 -262144 -1 -1 1
1;
#X floatatom -54 6 10 0 0 0 - - -;
#X obj -54 106 s ant_sel;
#X obj 512 276 r ant_sel;
#X obj 512 326 + 1;
#X obj 512 306 * -1;
#X msg -21 46 0.1;
#X msg 236 206 start;
#X msg 216 186 open sryimlate.wav;
#X obj 216 226 readsf~ 1;
#X obj 216 256 s~ snd0;
#X obj 476 196 r~ sel_snd;
#X obj 117 36 s~ sel_snd;
#X obj 216 346 readsf~ 1;
#X obj 216 376 s~ snd1;
#X msg 216 306 open mu305.wav;
#X obj 117 -14 r~ snd0;
#X obj 167 -14 r~ snd1;
#X msg 399 46 0.1;
#X obj 512 116 / 40000;
#X obj 236 166 delay 10;
#X obj 236 286 delay 10;
#X msg 236 326 start;
#X obj 117 6 *~;
#X obj 167 6 *~;
#X obj 156 -44 == 1;
#X obj 206 -44 == 2;
#X msg 119 186 stop;
#X obj 119 116 bng 15 250 50 0 empty empty empty 17 7 0 10 -262144
-1 -1;
#X obj 119 136 loadbang;
#X obj -44 -54 loadbang;
#X obj 376 -54 loadbang;
#X connect 0 0 19 0;
#X connect 2 0 49 0;
#X connect 2 0 50 0;
#X connect 3 0 15 0;
#X connect 4 0 25 0;
#X connect 8 0 43 0;
#X connect 10 0 0 1;
#X connect 10 0 17 1;
#X connect 11 0 9 0;
#X connect 12 0 42 0;
#X connect 13 0 15 0;
#X connect 14 0 13 0;
#X connect 15 0 11 0;
#X connect 16 0 10 0;
#X connect 17 0 18 0;
#X connect 18 0 1 1;
#X connect 19 0 1 0;
#X connect 20 0 22 0;
#X connect 21 0 30 0;
#X connect 22 0 26 0;
#X connect 23 0 25 0;
#X connect 24 0 23 0;
#X connect 25 0 20 0;
#X connect 27 0 19 1;
#X connect 27 0 29 0;
#X connect 28 0 18 1;
#X connect 29 0 28 0;
#X connect 30 0 20 1;
#X connect 31 0 33 0;
#X connect 32 0 33 0;
#X connect 33 0 34 0;
#X connect 33 1 44 0;
#X connect 33 1 32 0;
#X connect 35 0 0 0;
#X connect 35 0 17 0;
#X connect 37 0 38 0;
#X connect 37 1 45 0;
#X connect 37 1 39 0;
#X connect 39 0 37 0;
#X connect 40 0 47 0;
#X connect 41 0 48 0;
#X connect 42 0 11 1;
#X connect 43 0 16 0;
#X connect 44 0 31 0;
#X connect 45 0 46 0;
#X connect 46 0 37 0;
#X connect 47 0 36 0;
#X connect 48 0 36 0;
#X connect 49 0 47 1;
#X connect 50 0 48 1;
#X connect 51 0 37 0;
#X connect 51 0 33 0;
#X connect 52 0 53 0;
#X connect 53 0 32 0;
#X connect 53 0 44 0;
#X connect 53 0 45 0;
#X connect 53 0 39 0;
#X connect 54 0 24 0;
#X connect 55 0 14 0;
